<svg width="388" height="90" viewBox="0 0 388 90" fill="none" xmlns="http://www.w3.org/2000/svg">
<rect width="388" height="90" rx="45" fill="white"/>
<rect x="0.5" y="0.5" width="387" height="89" rx="44.5" stroke="black" stroke-opacity="0.12"/>
<path d="M76.015 40.5883C76.8155 41.014 77.4851 41.6495 77.952 42.4266C78.419 43.2038 78.6656 44.0934 78.6656 45C78.6656 45.9066 78.419 46.7962 77.952 47.5734C77.4851 48.3505 76.8155 48.986 76.015 49.4117L54.6617 61.0233C51.2233 62.895 47 60.4617 47 56.6133V33.3883C47 29.5383 51.2233 27.1067 54.6617 28.975L76.015 40.5883Z" stroke="black" stroke-width="3"/>
<path d="M110 41V47M118 33V55M126 27V63M134 37V51M142 31V57M150 41V47" stroke="black" stroke-width="4" stroke-linecap="round" stroke-linejoin="round"/>
<path d="M158 41V47M166 33V55M174 27V63M182 37V51M190 31V57M198 41V47" stroke="black" stroke-width="4" stroke-linecap="round" stroke-linejoin="round"/>
<path d="M206 41V47M214 33V55M222 27V63M230 37V51M238 31V57M246 41V47" stroke="black" stroke-width="4" stroke-linecap="round" stroke-linejoin="round"/>
<path d="M254 41V47M262 33V55M270 27V63M278 37V51M286 31V57M294 41V47" stroke="black" stroke-width="4" stroke-linecap="round" stroke-linejoin="round"/>
<path d="M302 41V47M310 33V55M318 27V63M326 37V51M334 31V57M342 41V47" stroke="black" stroke-width="4" stroke-linecap="round" stroke-linejoin="round"/>
</svg>
