<svg width="388" height="90" viewBox="0 0 388 90" fill="none" xmlns="http://www.w3.org/2000/svg">
<rect width="388" height="90" rx="45" fill="white"/>
<rect x="0.5" y="0.5" width="387" height="89" rx="44.5" stroke="black" stroke-opacity="0.12"/>
<path d="M52 61.6667C51.0833 61.6667 50.2988 61.3406 49.6466 60.6884C48.9944 60.0361 48.6677 59.2511 48.6666 58.3334V41.6667C48.6666 40.75 48.9933 39.9656 49.6466 39.3134C50.3 38.6611 51.0844 38.3345 52 38.3334H53.6666V35C53.6666 32.6945 54.4794 30.7295 56.105 29.105C57.7305 27.4806 59.6955 26.6678 62 26.6667C64.3044 26.6656 66.27 27.4784 67.8966 29.105C69.5233 30.7317 70.3355 32.6967 70.3333 35V38.3334H71.9999C72.9166 38.3334 73.7016 38.66 74.3549 39.3134C75.0083 39.9667 75.3344 40.7511 75.3333 41.6667V58.3334C75.3333 59.25 75.0072 60.035 74.3549 60.6884C73.7027 61.3417 72.9177 61.6678 71.9999 61.6667H52ZM52 58.3334H71.9999V41.6667H52V58.3334ZM62 53.3334C62.9166 53.3334 63.7016 53.0072 64.355 52.355C65.0083 51.7028 65.3344 50.9178 65.3333 50C65.3322 49.0822 65.0061 48.2978 64.355 47.6467C63.7038 46.9956 62.9188 46.6689 62 46.6667C61.0811 46.6645 60.2966 46.9911 59.6466 47.6467C58.9966 48.3022 58.67 49.0867 58.6666 50C58.6633 50.9134 58.99 51.6984 59.6466 52.355C60.3033 53.0117 61.0877 53.3378 62 53.3334ZM57 38.3334H67V35C67 33.6111 66.5138 32.4306 65.5416 31.4584C64.5694 30.4861 63.3888 30 62 30C60.6111 30 59.4305 30.4861 58.4583 31.4584C57.4861 32.4306 57 33.6111 57 35V38.3334Z" fill="black"/>
<path d="M110 41V47M118 33V55M126 27V63M134 37V51M142 31V57M150 41V47" stroke="black" stroke-width="4" stroke-linecap="round" stroke-linejoin="round"/>
<path d="M158 41V47M166 33V55M174 27V63M182 37V51M190 31V57M198 41V47" stroke="black" stroke-width="4" stroke-linecap="round" stroke-linejoin="round"/>
<path d="M206 41V47M214 33V55M222 27V63M230 37V51M238 31V57M246 41V47" stroke="black" stroke-width="4" stroke-linecap="round" stroke-linejoin="round"/>
<path d="M254 41V47M262 33V55M270 27V63M278 37V51M286 31V57M294 41V47" stroke="black" stroke-width="4" stroke-linecap="round" stroke-linejoin="round"/>
<path d="M302 41V47M310 33V55M318 27V63M326 37V51M334 31V57M342 41V47" stroke="black" stroke-width="4" stroke-linecap="round" stroke-linejoin="round"/>
</svg>
